HIERARCHY
ROOT Hips
{
	OFFSET 0.000000 0.000000 0.000000 
	CHANNELS 6 Xposition Yposition Zposition Zrotation Yrotation Xrotation
	JOINT LeftUpLeg
	{
		OFFSET 1.363060 -1.794630 0.839290 
		CHANNELS 3 Zrotation Yrotation Xrotation
		JOINT LeftLeg
		{
			OFFSET 2.448110 -6.726130 0.000000 
			CHANNELS 3 Zrotation Yrotation Xrotation
			JOINT LeftFoot
			{
				OFFSET 2.562200 -7.039590 0.000000 
				CHANNELS 3 Zrotation Yrotation Xrotation
				JOINT LeftToeBase
				{
					OFFSET 0.157640 -0.433110 2.322550 
					CHANNELS 3 Zrotation Yrotation Xrotation
					End Site
					{
						OFFSET 0.000000 0.000000 0.000000 
					}
				}
			}
		}
	}
	JOINT RightUpLeg
	{
		OFFSET -1.305520 -1.794630 0.839290 
		CHANNELS 3 Zrotation Yrotation Xrotation
		JOINT RightLeg
		{
			OFFSET -2.542530 -6.985550 0.000000 
			CHANNELS 3 Zrotation Yrotation Xrotation
			JOINT RightFoot
			{
				OFFSET -2.568260 -7.056230 0.000000 
				CHANNELS 3 Zrotation Yrotation Xrotation
				JOINT RightToeBase
				{
					OFFSET -0.164730 -0.452590 2.363150 
					CHANNELS 3 Zrotation Yrotation Xrotation
					End Site
					{
						OFFSET 0.000000 0.000000 0.000000 
					}
				}
			}
		}
	}
	JOINT Spine
	{
		OFFSET 0.028270 2.035590 -0.193380 
		CHANNELS 3 Zrotation Yrotation Xrotation
		JOINT Spine1
		{
			OFFSET 0.056720 2.048850 -0.042750 
			CHANNELS 3 Zrotation Yrotation Xrotation
			JOINT Neck1
			{
				OFFSET -0.054170 1.746240 0.172020 
				CHANNELS 3 Zrotation Yrotation Xrotation
				JOINT Head
				{
					OFFSET 0.104070 1.761360 -0.123970 
					CHANNELS 3 Zrotation Yrotation Xrotation
					End Site
					{
						OFFSET 0.000000 0.000000 0.000000 
					}
				}
			}
			JOINT LeftArm
			{
				OFFSET 3.362410 1.200890 -0.311210 
				CHANNELS 3 Zrotation Yrotation Xrotation
				JOINT LeftForeArm
				{
					OFFSET 4.983000 -0.000000 -0.000000 
					CHANNELS 3 Zrotation Yrotation Xrotation
					JOINT LeftHand
					{
						OFFSET 3.483560 -0.000000 -0.000000 
						CHANNELS 3 Zrotation Yrotation Xrotation
						JOINT LeftHandIndex1
						{
							OFFSET 0.715260 -0.000000 -0.000000 
							CHANNELS 3 Zrotation Yrotation Xrotation
							End Site
							{
								OFFSET 0.000000 0.000000 0.000000 
							}
						}
					}
				}
			}
			JOINT RightArm
			{
				OFFSET -3.136600 1.374050 -0.404650 
				CHANNELS 3 Zrotation Yrotation Xrotation
				JOINT RightForeArm
				{
					OFFSET -5.241900 -0.000000 -0.000000 
					CHANNELS 3 Zrotation Yrotation Xrotation
					JOINT RightHand
					{
						OFFSET -3.444170 -0.000000 -0.000000 
						CHANNELS 3 Zrotation Yrotation Xrotation
						JOINT RightHandIndex1
						{
							OFFSET -0.622530 -0.000000 -0.000000 
							CHANNELS 3 Zrotation Yrotation Xrotation
							End Site
							{
								OFFSET 0.000000 0.000000 0.000000 
							}
						}
					}
				}
			}
		}
	}
}
MOTION
Frames: 16
Frame Time: 0.041667
10.640303 14.107887 -26.960074 8.383501 -1.396275 -33.920946 4.797744 14.377133 -23.829322 -44.527331 44.436282 33.074008 19.062839 -1.422742 54.441537 1.071500 -6.580300 -18.477700 -4.232664 -34.016452 -29.254769 -1.325523 -38.374808 51.313746 -16.805049 -23.231734 53.950282 -0.065000 1.644700 -4.524800 -33.922727 -6.038980 23.486858 11.789178 -5.687957 1.629598 7.272257 -5.079391 4.833220 4.270100 -2.416500 8.345400 -74.974059 -30.458827 34.072784 45.649475 -38.235024 -42.716161 -2.705500 -9.198025 25.505476 -7.125000 0.000000 0.000000 71.794164 23.768225 35.055289 -57.673630 55.909808 -53.511770 1.705468 4.097679 13.303797 7.125000 0.000000 0.000000 
10.640005 14.107887 -26.960373 8.291955 -1.195498 -33.998262 4.747119 14.402393 -23.504915 -43.773584 44.322783 33.344978 18.962966 -1.395077 54.419007 1.130800 -6.754000 -18.988700 -4.138113 -34.097307 -29.191079 -1.072935 -38.494349 51.216423 -16.875004 -23.066306 53.993823 -0.087600 1.908900 -5.253900 -33.725860 -7.442541 23.562308 11.894886 -5.664189 2.372592 7.351639 -4.934875 4.878905 4.252500 -2.330700 8.367800 -75.297463 -30.974175 34.194112 46.502833 -39.172109 -43.378132 -2.310743 -9.504227 25.329221 -7.125000 0.000000 0.000000 71.894271 25.174524 34.914501 -59.135570 56.690632 -53.916773 1.711410 4.296560 13.361364 7.125000 0.000000 0.000000 
10.637317 14.110276 -26.966494 8.288088 -1.873216 -34.036187 5.001094 14.076770 -22.710842 -43.811746 43.874041 32.739809 19.079128 -1.131962 54.285827 1.362200 -7.387300 -20.867900 -3.982636 -34.149673 -29.066011 -0.928837 -38.524564 51.204324 -16.895831 -22.958098 54.069075 -0.140400 2.415200 -6.654500 -34.272285 -5.314651 23.213234 11.650742 -5.635204 2.048839 7.458223 -4.935489 4.743550 4.415000 -2.318900 8.442900 -74.205605 -31.445976 34.482421 46.672725 -39.652394 -44.323335 -1.964336 -9.504279 24.898428 -7.125000 0.000000 0.000000 70.780709 26.399739 34.203036 -59.506198 56.352559 -54.800729 1.958057 4.135914 13.549390 7.125000 0.000000 0.000000 
10.617907 14.105050 -26.980231 8.766891 -3.389654 -34.097096 5.275918 13.520653 -21.565002 -45.635402 42.853135 30.661811 19.708239 -0.564101 54.514386 1.487500 -7.705300 -21.822500 -4.085784 -34.333299 -28.865312 -1.952499 -38.024830 51.421479 -16.650763 -23.257042 54.087773 -0.270200 3.343800 -9.237400 -34.941650 2.828132 23.019070 10.725968 -6.310995 -0.224710 7.387476 -5.234328 4.199768 4.581400 -2.439700 8.318300 -70.154799 -32.570991 34.907807 45.124655 -38.723691 -45.140480 -1.904128 -9.262666 24.391055 -7.125000 0.000000 0.000000 66.848919 27.811913 33.100155 -57.177407 53.493083 -56.300394 2.384180 3.448766 13.244463 7.125000 0.000000 0.000000 
10.602677 14.107887 -26.997849 9.040192 -3.139418 -34.213947 5.513164 12.747417 -20.431987 -47.443925 41.926961 28.414735 20.502597 -0.056581 55.301539 1.285900 -7.185600 -20.266400 -4.117177 -34.394619 -28.963606 -2.597596 -37.774724 51.687445 -16.506908 -23.595068 53.938214 -0.352900 3.816700 -10.561500 -34.822454 1.514898 22.887603 11.037487 -6.631399 0.183645 7.569202 -5.174609 4.182829 4.645200 -2.387900 8.233400 -70.117868 -33.678813 34.692809 45.825557 -39.353168 -45.842390 -1.633422 -9.314782 24.155051 -7.125000 0.000000 0.000000 66.935849 29.384354 32.684869 -59.291665 54.469683 -57.635243 2.687979 3.859963 12.320942 7.125000 0.000000 0.000000 
10.595660 14.118040 -27.020246 9.348705 -3.513978 -34.186875 5.186048 13.230245 -20.562554 -47.726457 41.792782 28.050980 20.679373 0.066615 55.640126 1.249900 -7.088200 -19.977100 -4.212116 -33.885817 -28.640899 -1.468100 -38.288262 51.585518 -16.711229 -23.138479 53.996861 -0.179200 2.726800 -7.519000 -34.895654 3.387068 22.898874 10.932407 -6.814267 -0.373018 7.522438 -5.281524 4.012106 4.557500 -2.422800 7.994300 -68.965982 -35.324899 34.577403 45.774950 -39.397296 -46.690704 -1.249124 -9.207932 23.594935 -7.125000 0.000000 0.000000 65.734526 31.021051 32.125445 -59.877569 54.204541 -59.024705 3.095237 3.915072 11.297419 7.125000 0.000000 0.000000 
10.590284 14.126551 -27.042045 9.906481 -4.171076 -34.155598 4.518679 14.278227 -21.181595 -48.215231 41.744558 27.802930 20.822308 0.166267 56.000848 1.308100 -7.244900 -20.443100 -4.495716 -33.017234 -28.091136 0.303648 -39.109377 51.490734 -17.007653 -22.411173 54.173808 -0.087700 1.909600 -5.256000 -34.860857 7.200041 23.093726 10.802633 -6.978532 -1.423665 7.475246 -5.337965 3.738087 4.692600 -2.446700 7.916300 -66.845094 -37.456873 34.449544 45.488076 -39.258927 -47.789734 -0.859983 -9.194572 22.801003 -7.125000 0.000000 0.000000 63.745468 33.017858 31.153183 -59.681718 53.255856 -60.752389 3.452702 3.662540 10.375831 7.125000 0.000000 0.000000 
10.593719 14.129089 -27.052945 10.020704 -4.295995 -34.075144 4.111373 14.811705 -20.986301 -47.776673 41.479862 27.529851 20.973784 0.282818 56.579677 1.214100 -6.989600 -19.684600 -4.488532 -32.634403 -28.037269 1.247823 -39.526126 51.591481 -17.116039 -22.185118 54.272213 -0.055700 1.522900 -4.188800 -34.992077 6.715644 23.258646 11.083584 -6.958122 -1.504681 7.791216 -5.352128 3.600312 4.871500 -2.430900 7.861900 -66.482561 -38.519101 35.009348 46.791024 -40.444456 -49.000901 -0.469232 -9.414155 22.044625 -7.125000 0.000000 0.000000 63.682975 34.946468 29.734540 -61.796415 53.986818 -62.323541 3.692507 3.792203 9.355462 7.125000 0.000000 0.000000 
10.597153 14.114755 -27.057126 9.677705 -4.328658 -33.958546 4.253424 14.559503 -20.158120 -46.127840 41.200803 28.043386 20.762611 0.254281 56.392320 1.380700 -7.435400 -21.011800 -4.200482 -32.971982 -28.242957 1.012334 -39.253764 51.407955 -17.088181 -22.253162 54.429880 -0.043900 1.352500 -3.719300 -35.179346 5.026003 23.286573 11.160359 -6.888806 -1.164955 8.051567 -5.450291 3.596111 4.838700 -2.457900 7.776100 -66.531107 -39.963155 35.599224 48.179095 -41.504373 -49.893682 -0.381827 -9.481263 21.365410 -7.125000 0.000000 0.000000 63.768657 37.108907 28.758008 -63.899530 54.721992 -63.052679 3.974222 4.017394 8.468544 7.125000 0.000000 0.000000 
10.588791 14.098032 -27.069966 9.370768 -4.932912 -33.980932 4.833890 13.878126 -19.312579 -45.046273 40.871099 28.685059 20.383813 0.121711 55.639150 1.612900 -8.008300 -22.739400 -3.916327 -33.801019 -28.226549 -0.012089 -38.532687 50.803191 -16.989559 -22.705818 54.628945 -0.082200 1.849700 -5.090400 -34.952110 7.469203 23.347242 10.246283 -7.298305 -1.917494 7.907423 -5.701753 3.488300 4.687700 -2.580300 7.741400 -64.069223 -42.893102 35.566174 47.840513 -40.667832 -50.433848 -0.727879 -9.235468 20.516897 -7.125000 0.000000 0.000000 61.722878 39.676453 27.755563 -63.225286 53.508945 -63.761633 4.368037 3.819345 8.085394 7.125000 0.000000 0.000000 
10.577444 14.090268 -27.091766 8.338514 -4.282947 -34.357279 5.909635 12.064536 -17.589899 -42.911056 40.244603 29.488044 19.821217 -0.036437 54.935969 1.407100 -7.503000 -21.214400 -3.422731 -34.861076 -28.588453 -2.110202 -37.219338 50.380258 -16.558945 -23.734286 54.386312 -0.039400 1.280500 -3.520800 -34.856120 3.028243 22.669880 10.282251 -7.002844 -0.662427 8.001065 -5.659179 4.010776 4.795500 -2.579500 7.621900 -65.607825 -45.090850 35.919043 49.476179 -41.457224 -50.975211 -1.019738 -9.322068 19.654939 -7.125000 0.000000 0.000000 64.113245 40.357785 27.539388 -66.423371 56.127815 -64.789380 4.417441 4.337851 7.861996 7.125000 0.000000 0.000000 
10.584312 14.090119 -27.112968 8.000659 -4.055492 -34.547850 6.246322 11.340732 -16.378003 -42.106537 39.589066 28.935894 19.979714 0.129005 55.524178 1.166100 -6.855000 -19.286400 -3.150950 -34.862591 -28.624666 -1.879271 -37.203152 50.240829 -16.527667 -23.851369 54.279258 -0.002600 0.327500 -0.899800 -34.857121 -0.634512 22.459046 10.636177 -6.743848 -0.039211 8.213091 -5.638052 4.226590 4.756800 -2.575800 7.569200 -66.573394 -46.818828 36.679008 51.451752 -42.498801 -51.567749 -1.215998 -9.520725 19.126622 -7.125000 0.000000 0.000000 65.406079 41.782823 26.863747 -69.023011 57.633317 -65.460041 4.345235 4.599554 7.742117 7.125000 0.000000 0.000000 
10.605365 14.095345 -27.137753 8.939398 -5.275685 -34.432603 5.847008 12.388144 -16.240843 -45.591114 39.433126 25.324535 21.462779 0.599242 57.774479 1.122900 -6.731000 -18.921000 -3.206649 -32.923615 -28.030476 3.089094 -39.668163 50.551895 -17.330836 -22.719422 54.579201 -0.004100 0.415800 -1.142500 -35.402606 1.518780 23.001096 11.117349 -6.600505 -1.992926 8.540531 -5.562008 3.702723 4.655100 -2.546600 7.557600 -63.910794 -48.389569 37.018041 51.757651 -42.187418 -52.058203 -1.551359 -9.475310 19.009579 -7.125000 0.000000 0.000000 62.699801 45.246586 25.822742 -68.090716 55.330637 -65.656636 4.451077 4.318707 7.833315 7.125000 0.000000 0.000000 
10.564155 14.098928 -27.175977 10.038256 -6.213416 -35.047307 6.282357 11.453942 -14.285701 -50.071236 37.875943 20.210542 22.963335 1.297729 59.493912 1.151900 -6.814400 -19.166700 -3.889155 -32.157054 -27.108211 3.512571 -39.954892 50.635234 -17.307812 -22.663863 54.604523 -0.033700 1.185600 -3.259700 -34.895430 6.829249 23.461877 10.507651 -7.876356 -4.241769 8.360138 -5.389533 3.363425 4.694300 -2.491000 7.592900 -58.467768 -51.142347 35.543067 50.150467 -39.683107 -52.257445 -1.971398 -9.260408 18.469594 -7.125000 0.000000 0.000000 59.429399 49.340556 25.427373 -64.633132 51.909174 -65.540170 4.748931 3.902211 7.757333 7.125000 0.000000 0.000000 
10.575652 14.138645 -27.237045 9.516374 -6.594001 -36.069536 7.608474 9.904568 -11.271636 -50.604054 36.801445 17.023974 23.693720 1.797607 60.915023 1.441300 -7.589800 -21.474900 -3.351949 -31.767165 -26.567162 6.478796 -41.137793 50.094759 -17.594554 -22.739995 54.541563 -0.059500 1.573800 -4.329300 -35.507738 2.644754 23.408141 10.982494 -7.370114 -4.388269 8.803345 -5.343581 3.418098 4.626200 -2.455300 7.649000 -57.624058 -53.119412 35.896735 51.456949 -39.384476 -51.998217 -1.972630 -9.486499 17.627250 -7.125000 0.000000 0.000000 58.589109 51.836779 24.159592 -66.077484 51.650635 -64.966415 4.651839 4.354888 7.625702 7.125000 0.000000 0.000000 
10.572069 14.090268 -27.121180 10.469908 -5.913116 -34.373608 5.788318 11.898762 -13.362783 -47.973654 36.821605 19.888343 23.132103 1.480690 60.093585 1.636800 -8.064500 -22.910300 -4.101398 -33.186914 -27.964741 1.422660 -38.959303 50.642060 -17.145386 -22.607009 54.810003 -0.027400 1.067900 -2.935600 -35.928759 3.495953 24.558733 10.796165 -8.608061 -4.652325 8.930349 -5.424082 3.382290 4.363800 -2.467400 7.722900 -55.311826 -54.731602 36.203703 51.045647 -38.399907 -51.940407 -2.132282 -9.408902 16.530647 -7.125000 0.000000 0.000000 57.297443 57.161439 23.688554 -64.654171 49.182406 -64.432934 4.798764 4.088918 7.431224 7.125000 0.000000 0.000000 
